<?xml version="1.0" encoding="iso-8859-1"?>
<!-- Generator: Adobe Illustrator 19.0.0, SVG Export Plug-In . SVG Version: 6.00 Build 0)  -->
<svg version="1.1" id="Capa_1" xmlns="http://www.w3.org/2000/svg" xmlns:xlink="http://www.w3.org/1999/xlink" x="0px" y="0px"
	 viewBox="0 0 512 512" style="enable-background:new 0 0 512 512;" xml:space="preserve">
<g>
	<g>
		<path d="M444.875,88.458l-42.654-42.654c-1.931-1.938-4.6-3.138-7.555-3.138h-96V32c0-17.646-14.354-32-32-32h-21.333
			c-17.646,0-32,14.354-32,32v10.667h-96c-2.954,0-5.624,1.201-7.555,3.138L67.125,88.458c-2,2-3.125,4.708-3.125,7.542v128
			c0,2.833,1.125,5.542,3.125,7.542l42.654,42.654c1.931,1.938,4.6,3.138,7.555,3.138h96V480c0,17.646,14.354,32,32,32h21.333
			c17.646,0,32-14.354,32-32V277.333h96c2.954,0,5.624-1.201,7.555-3.138l42.654-42.654c2-2,3.125-4.708,3.125-7.542V96
			C448,93.167,446.875,90.458,444.875,88.458z M277.333,457.263l-15.417,10.279c-1.792,1.198-3.854,1.792-5.917,1.792
			s-4.125-0.594-5.917-1.792l-15.417-10.279v-25.638L256,445.844l21.333-14.219V457.263z M277.333,393.263l-15.417,10.279
			c-1.792,1.198-3.854,1.792-5.917,1.792s-4.125-0.594-5.917-1.792l-15.417-10.279v-25.638L256,381.844l21.333-14.219V393.263z
			 M277.333,329.263l-15.417,10.279c-1.792,1.198-3.854,1.792-5.917,1.792s-4.125-0.594-5.917-1.792l-15.417-10.279v-25.638
			L256,317.844l21.333-14.219V329.263z"/>
	</g>
</g>
<g>
</g>
<g>
</g>
<g>
</g>
<g>
</g>
<g>
</g>
<g>
</g>
<g>
</g>
<g>
</g>
<g>
</g>
<g>
</g>
<g>
</g>
<g>
</g>
<g>
</g>
<g>
</g>
<g>
</g>
</svg>
